<?xml version="1.0" standalone="no"?>
<!DOCTYPE svg PUBLIC "-//W3C//DTD SVG 20010904//EN"
 "http://www.w3.org/TR/2001/REC-SVG-20010904/DTD/svg10.dtd">
<svg version="1.0" xmlns="http://www.w3.org/2000/svg"
 width="180.000000pt" height="180.000000pt" viewBox="0 0 180.000000 180.000000"
 preserveAspectRatio="xMidYMid meet">
<metadata>
Created by potrace 1.15, written by Peter Selinger 2001-2017
</metadata>
<g transform="translate(0.000000,180.000000) scale(0.100000,-0.100000)"
fill="#000000" stroke="none">
<path d="M0 900 l0 -900 900 0 900 0 0 900 0 900 -900 0 -900 0 0 -900z m1585
780 c4 -27 11 -52 15 -55 5 -3 12 -30 15 -60 4 -30 11 -55 15 -55 4 0 12 -39
19 -87 7 -48 16 -94 22 -104 5 -10 12 -70 15 -134 4 -63 11 -118 16 -121 11
-7 11 -271 0 -278 -5 -3 -12 -47 -15 -97 -4 -51 -11 -97 -16 -103 -5 -6 -14
-37 -21 -68 -6 -32 -15 -58 -20 -58 -4 0 -11 -16 -14 -35 -4 -19 -11 -35 -15
-35 -5 0 -14 -14 -20 -30 -5 -17 -16 -37 -23 -44 -7 -7 -20 -24 -28 -36 -14
-22 -71 -80 -104 -108 -34 -27 -111 -62 -137 -62 -16 0 -29 -4 -29 -10 0 -6
-28 -10 -64 -10 -36 0 -68 5 -71 10 -3 6 -18 10 -33 10 -39 0 -129 45 -167 83
l-34 34 62 65 c88 93 118 127 151 176 16 23 33 42 37 42 5 0 9 4 9 10 0 5 18
36 40 67 22 32 40 64 40 71 0 6 4 12 9 12 5 0 14 15 22 33 7 17 15 34 19 37
10 9 60 115 60 128 0 6 4 12 9 12 5 0 12 16 15 35 4 19 10 35 15 35 4 0 13 22
20 50 7 27 17 52 22 56 5 3 9 15 9 27 0 12 7 35 15 50 20 39 29 93 16 101 -15
10 -48 -32 -56 -70 -3 -19 -9 -34 -14 -34 -4 0 -13 -18 -20 -40 -6 -22 -16
-40 -21 -40 -4 0 -11 -13 -15 -30 -4 -17 -10 -30 -15 -30 -5 0 -12 -10 -16
-22 -4 -13 -15 -34 -24 -48 -10 -14 -35 -52 -56 -85 -21 -33 -43 -65 -49 -71
-5 -6 -17 -22 -25 -34 -52 -79 -221 -258 -334 -355 -33 -27 -64 -54 -70 -60
-6 -5 -31 -23 -56 -40 -25 -16 -47 -32 -50 -35 -3 -3 -27 -19 -55 -35 -27 -15
-52 -31 -55 -35 -3 -4 -17 -13 -32 -21 -155 -81 -217 -109 -240 -109 -14 0
-29 -6 -31 -12 -4 -10 -8 -10 -14 -2 -4 7 -17 13 -28 15 -13 3 -21 13 -23 30
-4 34 23 46 117 53 41 4 79 10 85 15 6 5 28 14 49 21 50 16 212 101 227 120 3
3 26 18 51 33 45 25 65 50 54 67 -2 4 -27 10 -54 12 -27 3 -57 12 -66 21 -9
10 -22 17 -30 17 -13 0 -116 97 -148 141 -10 13 -20 34 -23 46 -4 13 -10 23
-14 23 -5 0 -12 21 -15 48 -4 26 -11 57 -17 69 -6 12 -8 34 -5 50 3 15 11 55
17 88 6 33 14 62 18 65 5 3 14 24 20 48 7 23 17 42 22 42 6 0 10 4 10 10 0 35
157 213 229 260 12 8 32 23 43 32 11 10 29 20 39 23 11 4 19 10 19 15 0 5 14
11 30 15 17 4 30 10 30 14 0 5 20 14 45 21 25 7 45 16 45 20 0 5 18 11 40 15
22 4 40 10 40 15 0 4 27 13 60 20 33 7 63 16 66 21 2 4 25 11 49 15 25 3 45
10 45 14 0 5 15 12 33 15 17 4 51 16 74 26 23 11 45 19 48 19 12 0 140 86 154
103 19 24 28 14 36 -43z"/>
</g>
</svg>
